<?xml version="1.0" encoding="UTF-8"?>
<svg width="400" height="400" viewBox="0 0 400 400" xmlns="http://www.w3.org/2000/svg">
    <!-- Background Circle -->
    <circle cx="200" cy="200" r="180" fill="none" stroke="#4facfe" stroke-width="2" opacity="0.1"/>
    
    <!-- Cloud Base -->
    <path d="M140,220 Q170,180 200,180 Q230,180 260,220 Q290,260 200,260 Q110,260 140,220" 
          fill="none" stroke="#00f2fe" stroke-width="4" stroke-linecap="round"/>
    
    <!-- Shield -->
    <path d="M180,160 L220,160 L220,220 L200,240 L180,220 Z" 
          fill="none" stroke="#4facfe" stroke-width="4"/>
    
    <!-- Lock -->
    <circle cx="200" cy="200" r="10" fill="#00f2fe"/>
    <rect x="195" y="200" width="10" height="15" rx="2" fill="#00f2fe"/>
    
    <!-- Connection Lines -->
    <line x1="160" y1="240" x2="140" y2="260" stroke="#4facfe" stroke-width="2" opacity="0.5"/>
    <line x1="240" y1="240" x2="260" y2="260" stroke="#4facfe" stroke-width="2" opacity="0.5"/>
    
    <!-- Security Circles -->
    <circle cx="140" cy="260" r="5" fill="#00f2fe"/>
    <circle cx="260" cy="260" r="5" fill="#00f2fe"/>
    
    <!-- Decorative Elements -->
    <circle cx="200" cy="140" r="3" fill="#4facfe"/>
    <circle cx="180" cy="150" r="2" fill="#4facfe"/>
    <circle cx="220" cy="150" r="2" fill="#4facfe"/>
</svg> 